<?xml version="1.0" encoding="utf-8"?>
<!-- Generator: Adobe Illustrator 19.0.0, SVG Export Plug-In . SVG Version: 6.00 Build 0)  -->
<svg version="1.1" id="Layer_1" xmlns="http://www.w3.org/2000/svg" xmlns:xlink="http://www.w3.org/1999/xlink" x="0px" y="0px"
	 viewBox="0 0 15.6 13.6" style="enable-background:new 0 0 15.6 13.6;" xml:space="preserve">
<style type="text/css">
	.st0{fill:none;}
	.st1{fill:#A4B7D6;}
</style>
<g id="XMLID_55_">
	<rect id="XMLID_87_" x="-1.2" y="-2.6" class="st0" width="18" height="18"/>
	<g id="XMLID_56_">
		<path id="XMLID_59_" class="st1" d="M7.8,13.3c-0.1,0-0.2,0-0.3-0.1c-0.1-0.1-2.8-2.5-5.8-5.9C0.4,5.9,0.1,4.2,0.8,2.6
			C1.5,1.1,3,0.1,4.5,0.1c1.7,0,2.7,0.8,3.2,1.4l0.1,0.2l0.1-0.2c0.5-0.7,1.5-1.4,3.2-1.4c1.6,0,3,1,3.7,2.5
			c0.7,1.6,0.4,3.3-0.8,4.7c-3,3.4-5.7,5.8-5.8,5.9C8.1,13.3,7.9,13.3,7.8,13.3z M4.5,1.1C3.4,1.1,2.3,1.8,1.7,3
			C1.2,4.2,1.4,5.5,2.4,6.6c2.3,2.6,4.5,4.6,5.3,5.4l0.1,0.1L7.9,12c0.8-0.8,3-2.8,5.3-5.4c1-1.1,1.2-2.4,0.7-3.6
			c-0.5-1.2-1.6-1.9-2.8-1.9C8.8,1.1,8.3,2.9,8.3,3C8.2,3.2,8,3.3,7.8,3.3C7.6,3.3,7.4,3.2,7.3,3C7.3,2.8,6.8,1.1,4.5,1.1z"/>
		<path id="XMLID_58_" class="st1" d="M12.5,5C12.3,5,12,4.8,12,4.6c-0.1-1.3-1-1.4-1.1-1.4c-0.1,0-0.2-0.1-0.3-0.2
			c-0.1-0.1-0.1-0.2-0.1-0.4c0-0.2,0.2-0.4,0.5-0.4c0,0,0,0,0.1,0c0.6,0.1,1.8,0.7,1.9,2.4C13,4.8,12.8,5,12.5,5
			C12.6,5,12.5,5,12.5,5z"/>
		<path id="XMLID_57_" class="st1" d="M11.7,6.6c-0.1,0-0.3-0.1-0.4-0.1c-0.1-0.1-0.1-0.2-0.1-0.4c0-0.1,0.1-0.3,0.1-0.4
			c0.1-0.1,0.2-0.1,0.4-0.1c0.1,0,0.3,0.1,0.4,0.1c0.1,0.1,0.1,0.2,0.1,0.4c0,0.1-0.1,0.3-0.1,0.4C12,6.6,11.9,6.6,11.7,6.6z"/>
	</g>
</g>
</svg>
