<?xml version="1.0" encoding="utf-8"?>
<!-- Generator: Adobe Illustrator 19.0.0, SVG Export Plug-In . SVG Version: 6.00 Build 0)  -->
<svg version="1.1" id="Layer_1" xmlns="http://www.w3.org/2000/svg" xmlns:xlink="http://www.w3.org/1999/xlink" x="0px" y="0px"
	 viewBox="0 0 15.6 13.6" style="enable-background:new 0 0 15.6 13.6;" xml:space="preserve">
<style type="text/css">
	.st0{fill:none;}
	.st1{fill:#D9ACD0;}
</style>
<g id="XMLID_88_">
	<rect id="XMLID_92_" x="0.1" y="-0.9" class="st0" width="15.5" height="15.5"/>
	<path id="XMLID_89_" class="st1" d="M3.8,13.6c-0.1,0-0.2,0-0.3-0.1c-0.2-0.1-0.2-0.3-0.2-0.5l1.2-4.3L1,5.7
		C0.8,5.6,0.7,5.4,0.8,5.2C0.9,5,1,4.9,1.2,4.9l4.3-0.3l1.9-4.2c0.1-0.2,0.2-0.3,0.4-0.3c0.2,0,0.4,0.1,0.4,0.3l1.9,4.2l4.3,0.3
		c0.2,0,0.4,0.1,0.4,0.3c0.1,0.2,0,0.4-0.1,0.5l-3.6,3l1.2,4.3c0.1,0.2,0,0.4-0.2,0.5c-0.1,0.1-0.2,0.1-0.3,0.1
		c-0.1,0-0.2,0-0.3-0.1L7.9,11l-3.8,2.5C4,13.6,3.9,13.6,3.8,13.6z M7.9,10c0.1,0,0.2,0,0.3,0.1l3,2l-0.9-3.3
		c-0.1-0.2,0-0.4,0.2-0.5l2.9-2.5L9.9,5.5c-0.2,0-0.3-0.1-0.4-0.3L7.9,1.7L6.3,5.2C6.2,5.4,6,5.5,5.9,5.5L2.5,5.7l2.9,2.5
		c0.1,0.1,0.2,0.3,0.2,0.5L4.6,12l3-2C7.7,10,7.8,10,7.9,10z"/>
</g>
</svg>
