<?xml version="1.0" encoding="utf-8"?>
<!-- Generator: Adobe Illustrator 19.1.0, SVG Export Plug-In . SVG Version: 6.00 Build 0)  -->
<svg version="1.1" id="Layer_1" xmlns="http://www.w3.org/2000/svg" xmlns:xlink="http://www.w3.org/1999/xlink" x="0px" y="0px"
	 viewBox="0 0 36 36" style="enable-background:new 0 0 36 36;" xml:space="preserve">
<style type="text/css">
	.st0{fill:#F4A8FF;}
</style>
<g>
	<path class="st0" d="M8,34.5c-0.3,0-0.5-0.1-0.7-0.2C7,34,6.8,33.5,6.9,33l2.9-10.4l-8.7-7.4C0.8,15,0.6,14.5,0.8,14
		c0.1-0.5,0.6-0.8,1-0.8l10.4-0.8l4.7-10.3c0.2-0.4,0.6-0.7,1.1-0.7c0.5,0,0.9,0.3,1.1,0.7l4.7,10.3l10.4,0.8c0.5,0,0.9,0.3,1,0.8
		c0.1,0.5,0,0.9-0.4,1.3l-8.7,7.4L29.1,33c0.1,0.5,0,1-0.4,1.3c-0.2,0.1-0.4,0.2-0.7,0.2c-0.2,0-0.4-0.1-0.6-0.2L18,28.3l-9.3,6.1
		C8.5,34.4,8.3,34.5,8,34.5z M18,25.7c0.2,0,0.4,0.1,0.6,0.2l7.4,4.8l-2.3-8.1c-0.1-0.4,0-0.9,0.4-1.2l7.1-6l-8.3-0.6
		c-0.4,0-0.8-0.3-1-0.7L18,5.5l-3.9,8.6c-0.2,0.4-0.6,0.6-1,0.7l-8.3,0.6l7.1,6c0.3,0.3,0.5,0.8,0.4,1.2L10,30.7l7.4-4.8
		C17.6,25.8,17.8,25.7,18,25.7z"/>
</g>
</svg>
