<?xml version="1.0" encoding="utf-8"?>
<!-- Generator: Adobe Illustrator 19.0.0, SVG Export Plug-In . SVG Version: 6.00 Build 0)  -->
<svg version="1.1" id="Layer_1" xmlns="http://www.w3.org/2000/svg" xmlns:xlink="http://www.w3.org/1999/xlink" x="0px" y="0px"
	 viewBox="0 0 123.2 98.8" style="enable-background:new 0 0 123.2 98.8;" xml:space="preserve">
<style type="text/css">
	.st0{fill:#A4B7D6;}
</style>
<path id="XMLID_1_" class="st0" d="M106.5,50.4c0,23.4-19,42.4-42.4,42.4c-21.9,0-40-16.7-42.2-38c1.9,0.7,3.9,1.1,5.9,1.4
	c2.8,17.5,18,30.9,36.3,30.9c20.3,0,36.8-16.5,36.8-36.8c0-20.3-16.5-36.8-36.8-36.8c-2.8,0-5.5,0.3-8.2,0.9c-1-1.8-2.2-3.4-3.5-4.9
	C56.1,8.6,60,8,64.1,8C87.5,8,106.5,27,106.5,50.4z M47.2,25.1H34.6V12.5c0-1.8-1.5-3.3-3.3-3.3c-1.8,0-3.3,1.5-3.3,3.3v12.5H15.5
	c-1.8,0-3.3,1.5-3.3,3.3c0,1.8,1.5,3.3,3.3,3.3h12.5v12.5c0,1.8,1.5,3.3,3.3,3.3c1.8,0,3.3-1.5,3.3-3.3V31.6h12.5
	c1.8,0,3.3-1.5,3.3-3.3C50.5,26.5,49,25.1,47.2,25.1z M80.6,33c-1.7-1.7-4-2.6-6.4-2.6c-2.4,0-4.7,0.9-6.4,2.6l-10,10
	c-1.7,1.7-2.6,4-2.6,6.4s0.9,4.7,2.6,6.4l0.5,0.5l2.9-2.9l-0.3-0.2c-0.1-0.1-0.2-0.1-0.2-0.2c-1-1-1.5-2.2-1.5-3.5
	c0-1.3,0.5-2.6,1.5-3.5l10-10c1-1,2.2-1.5,3.5-1.5c1.3,0,2.6,0.5,3.5,1.5c1,1,1.5,2.2,1.5,3.5c0,1.3-0.5,2.6-1.5,3.5l-3,3l0.1,0.2
	c0.5,1.2,0.8,2.5,0.9,3.9l0.1,0.7l4.8-4.8c1.7-1.7,2.7-4,2.7-6.4C83.2,37,82.3,34.8,80.6,33z M68.2,44.5l-2.9,2.9l0.3,0.2
	c0.1,0.1,0.2,0.1,0.2,0.2c2,2,2,5.1,0,7l-10,10c-1,1-2.2,1.5-3.5,1.5c-1.3,0-2.6-0.5-3.5-1.5c-1-1-1.5-2.2-1.5-3.5
	c0-1.3,0.5-2.6,1.5-3.5l3-3l-0.1-0.2c-0.5-1.2-0.8-2.5-0.9-3.9l-0.1-0.7l-4.8,4.8c-1.7,1.7-2.6,4-2.6,6.4s0.9,4.7,2.6,6.4
	c1.7,1.7,4,2.6,6.4,2.6c2.4,0,4.7-0.9,6.4-2.6l10-10c1.7-1.7,2.7-4,2.7-6.4c0-2.4-0.9-4.7-2.7-6.4L68.2,44.5z"/>
</svg>
