<?xml version="1.0" encoding="utf-8"?>
<!-- Generator: Adobe Illustrator 19.1.0, SVG Export Plug-In . SVG Version: 6.00 Build 0)  -->
<svg version="1.1" id="Layer_1" xmlns="http://www.w3.org/2000/svg" xmlns:xlink="http://www.w3.org/1999/xlink" x="0px" y="0px"
	 viewBox="0 0 36 36" style="enable-background:new 0 0 36 36;" xml:space="preserve">
<style type="text/css">
	.st0{fill:#60EEF1;}
</style>
<g>
	<g>
		<path class="st0" d="M4.9,33.5c-0.4,0-0.7-0.1-1-0.4c-0.3-0.3-0.4-0.6-0.4-1c0-0.4,0.1-0.7,0.4-1l10.8-10.8l-0.2-0.3
			c-1.5-1.9-2.2-4.2-2.2-6.6c0-6.1,4.9-11,11-11c6.1,0,11,4.9,11,11c0,6.1-4.9,11-11,11c-2.3,0-4.4-0.7-6.3-2l-0.3-0.2L5.9,33.1
			C5.6,33.4,5.3,33.5,4.9,33.5z M23.3,4.8c-4.8,0-8.6,3.9-8.6,8.6c0,4.8,3.9,8.6,8.6,8.6c4.8,0,8.6-3.9,8.6-8.6
			C31.9,8.7,28,4.8,23.3,4.8z"/>
		<path class="st0" d="M27.6,14.6c-0.1,0-0.1,0-0.2,0c-0.6-0.1-1.1-0.7-1-1.3c0.2-1.5-1.2-2.6-2-2.9c-0.6-0.3-0.9-1-0.6-1.6
			c0.2-0.4,0.6-0.7,1.1-0.7c0.2,0,0.3,0,0.5,0.1c1.4,0.6,3.8,2.5,3.4,5.4C28.7,14.2,28.2,14.6,27.6,14.6z"/>
		<path class="st0" d="M25.2,18.5c-0.3,0-0.6-0.1-0.8-0.3c-0.2-0.2-0.3-0.5-0.3-0.8c0-0.3,0.1-0.6,0.3-0.8c0.2-0.2,0.5-0.4,0.8-0.4
			c0.3,0,0.6,0.1,0.8,0.3c0.2,0.2,0.4,0.5,0.4,0.8c0,0.3-0.1,0.6-0.3,0.8C25.8,18.4,25.5,18.5,25.2,18.5z"/>
	</g>
</g>
</svg>
