<?xml version="1.0" encoding="utf-8"?>
<!-- Generator: Adobe Illustrator 19.0.0, SVG Export Plug-In . SVG Version: 6.00 Build 0)  -->
<svg version="1.1" id="Layer_1" xmlns="http://www.w3.org/2000/svg" xmlns:xlink="http://www.w3.org/1999/xlink" x="0px" y="0px"
	 viewBox="0 0 15.6 13.6" style="enable-background:new 0 0 15.6 13.6;" xml:space="preserve">
<style type="text/css">
	.st0{fill:none;}
	.st1{fill:#A4B7D6;}
</style>
<g id="XMLID_54_">
	<rect id="XMLID_61_" x="-1.2" y="-3" class="st0" width="18" height="18"/>
	<g id="XMLID_55_">
		<path id="XMLID_58_" class="st1" d="M9.4,13.6c-0.1,0-0.1,0-0.2,0c-0.2-0.1-0.3-0.3-0.3-0.5V10H0.4c-0.3,0-0.5-0.2-0.5-0.5V0.5
			C-0.1,0.2,0.1,0,0.4,0h14.7c0.3,0,0.5,0.2,0.5,0.5v8.9c0,0.3-0.2,0.5-0.5,0.5h-2.3l-2.9,3.5C9.7,13.5,9.6,13.6,9.4,13.6z M0.9,8.9
			h8.5c0.3,0,0.5,0.2,0.5,0.5v2.2l2.2-2.5c0.1-0.1,0.2-0.2,0.4-0.2h2.1V1.1H0.9V8.9z"/>
		<path id="XMLID_57_" class="st1" d="M3.7,4.2C3.4,4.2,3.1,4,3.1,3.7s0.2-0.5,0.5-0.5h5.1c0.3,0,0.5,0.2,0.5,0.5S9,4.2,8.7,4.2H3.7
			z"/>
		<path id="XMLID_56_" class="st1" d="M11.1,4.2c-0.1,0-0.3-0.1-0.4-0.2c-0.1-0.1-0.2-0.2-0.2-0.4c0-0.1,0.1-0.3,0.2-0.4
			c0.1-0.1,0.2-0.2,0.4-0.2c0.1,0,0.3,0.1,0.4,0.2c0.1,0.1,0.2,0.2,0.2,0.4c0,0.1-0.1,0.3-0.2,0.4C11.4,4.2,11.3,4.2,11.1,4.2z"/>
	</g>
</g>
</svg>
