<?xml version="1.0" encoding="utf-8"?>
<!-- Generator: Adobe Illustrator 19.1.0, SVG Export Plug-In . SVG Version: 6.00 Build 0)  -->
<svg version="1.1" id="Layer_1" xmlns="http://www.w3.org/2000/svg" xmlns:xlink="http://www.w3.org/1999/xlink" x="0px" y="0px"
	 viewBox="0 0 36 36" style="enable-background:new 0 0 36 36;" xml:space="preserve">
<style type="text/css">
	.st0{fill:#A399E8;}
</style>
<g>
	<g>
		<path class="st0" d="M12.3,8.5H9C8.2,8.5,7.5,7.8,7.5,7v0c0-0.9,0.7-1.6,1.6-1.6h3.3c0.9,0,1.6,0.7,1.6,1.6v0
			C13.9,7.8,13.2,8.5,12.3,8.5z"/>
		<path class="st0" d="M27.7,8.5h-10c-0.9,0-1.6-0.7-1.6-1.6v0c0-0.9,0.7-1.6,1.6-1.6h10c0.9,0,1.6,0.7,1.6,1.6v0
			C29.2,7.8,28.5,8.5,27.7,8.5z"/>
		<path class="st0" d="M17.4,16.3H2.5c-0.9,0-1.6-0.7-1.6-1.6v0c0-0.9,0.7-1.6,1.6-1.6h14.9c0.9,0,1.6,0.7,1.6,1.6v0
			C19,15.6,18.2,16.3,17.4,16.3z"/>
		<path class="st0" d="M33.5,16.3h-3.8c-0.9,0-1.6-0.7-1.6-1.6v0c0-0.9,0.7-1.6,1.6-1.6h3.8c0.9,0,1.6,0.7,1.6,1.6v0
			C35.1,15.6,34.4,16.3,33.5,16.3z"/>
		<path class="st0" d="M24.9,16.3h-3.1c-0.9,0-1.6-0.7-1.6-1.6v0c0-0.9,0.7-1.6,1.6-1.6h3.1c0.9,0,1.6,0.7,1.6,1.6v0
			C26.5,15.6,25.8,16.3,24.9,16.3z"/>
		<path class="st0" d="M10,24H2.8c-0.9,0-1.6-0.7-1.6-1.6v0c0-0.9,0.7-1.6,1.6-1.6H10c0.9,0,1.6,0.7,1.6,1.6v0
			C11.5,23.3,10.8,24,10,24z"/>
		<path class="st0" d="M23,20.9h10.3c0.9,0,1.6,0.7,1.6,1.6v0c0,0.9-0.7,1.6-1.6,1.6H23c-0.9,0-1.6-0.7-1.6-1.6v0
			C21.4,21.6,22.1,20.9,23,20.9z"/>
		<path class="st0" d="M14.8,20.9h3.3c0.9,0,1.6,0.7,1.6,1.6v0c0,0.9-0.7,1.6-1.6,1.6h-3.3c-0.9,0-1.6-0.7-1.6-1.6v0
			C13.2,21.6,13.9,20.9,14.8,20.9z"/>
		<g>
			<path class="st0" d="M11.3,27.5h13.3c0.9,0,1.6,0.7,1.6,1.6v0c0,0.9-0.7,1.6-1.6,1.6H11.3c-0.9,0-1.6-0.7-1.6-1.6v0
				C9.8,28.2,10.5,27.5,11.3,27.5z"/>
		</g>
	</g>
</g>
</svg>
