<?xml version="1.0" encoding="utf-8"?>
<!-- Generator: Adobe Illustrator 19.0.0, SVG Export Plug-In . SVG Version: 6.00 Build 0)  -->
<svg version="1.1" id="Layer_1" xmlns="http://www.w3.org/2000/svg" xmlns:xlink="http://www.w3.org/1999/xlink" x="0px" y="0px"
	 viewBox="0 0 123.2 98.8" style="enable-background:new 0 0 123.2 98.8;" xml:space="preserve">
<style type="text/css">
	.st0{fill:#A4B7D6;}
</style>
<path id="XMLID_1_" class="st0" d="M15.9,50.4C15.9,27,34.9,8,58.3,8c21.9,0,40,16.7,42.2,38c-1.9-0.7-3.9-1.1-5.9-1.4
	c-2.8-17.5-18-30.9-36.3-30.9c-20.3,0-36.8,16.5-36.8,36.8c0,20.3,16.5,36.8,36.8,36.8c2.8,0,5.5-0.3,8.2-0.9c1,1.8,2.2,3.4,3.5,4.9
	c-3.7,1.1-7.6,1.6-11.7,1.6C34.9,92.9,15.9,73.8,15.9,50.4z M74.6,33c-1.7-1.7-4-2.6-6.4-2.6c-2.4,0-4.7,0.9-6.4,2.6l-10,10
	c-1.7,1.7-2.6,4-2.6,6.4s0.9,4.7,2.6,6.4l0.5,0.5l2.9-2.9l-0.3-0.2c-0.1-0.1-0.2-0.1-0.2-0.2c-1-1-1.5-2.2-1.5-3.5
	c0-1.3,0.5-2.6,1.5-3.5l10-10c1-1,2.2-1.5,3.5-1.5c1.3,0,2.6,0.5,3.5,1.5c1,1,1.5,2.2,1.5,3.5c0,1.3-0.5,2.6-1.5,3.5l-3,3l0.1,0.2
	c0.5,1.2,0.8,2.5,0.9,3.9l0.1,0.7l4.8-4.8c1.7-1.7,2.7-4,2.7-6.4C77.2,37,76.3,34.8,74.6,33z M62.2,44.5l-2.9,2.9l0.3,0.2
	c0.1,0.1,0.2,0.1,0.2,0.2c2,2,2,5.1,0,7l-10,10c-1,1-2.2,1.5-3.5,1.5c-1.3,0-2.6-0.5-3.5-1.5c-1-1-1.5-2.2-1.5-3.5
	c0-1.3,0.5-2.6,1.5-3.5l3-3l-0.1-0.2c-0.5-1.2-0.8-2.5-0.9-3.9l-0.1-0.7l-4.8,4.8c-1.7,1.7-2.6,4-2.6,6.4s0.9,4.7,2.6,6.4
	c1.7,1.7,4,2.6,6.4,2.6c2.4,0,4.7-0.9,6.4-2.6l10-10c1.7-1.7,2.7-4,2.7-6.4c0-2.4-0.9-4.7-2.7-6.4L62.2,44.5z M73.8,82.6
	c-0.1,0-0.3,0-0.4-0.1c-0.8-0.2-1.3-0.9-1.3-1.7c0-0.3,0-8.1,5.9-14c3.9-3.9,9.3-6,16.2-6.3v-6c0-0.7,0.4-1.3,1.1-1.6
	c0.6-0.3,1.4-0.1,1.9,0.4l13.2,13.2c0.6,0.6,0.7,1.5,0.2,2.2c-0.1,0.1-0.1,0.2-0.2,0.3c-0.5,0.5-13.2,13.2-13.2,13.2
	c-0.5,0.5-1.2,0.6-1.9,0.4c-0.6-0.3-1.1-0.9-1.1-1.6v-6.1c-0.4,0-1,0-1.5,0c-5,0-13.9,0.9-17.3,6.9C74.9,82.3,74.4,82.6,73.8,82.6z
	 M92.6,71.4c2,0,3.4,0.1,3.5,0.2c0.9,0.1,1.5,0.8,1.5,1.7v3.5l9-9l-9-9v3.5c0,1-0.8,1.7-1.7,1.7c-12.7,0-17.5,6.5-19.3,11.4
	C81.6,72,88.3,71.4,92.6,71.4z"/>
</svg>
