<?xml version="1.0" encoding="utf-8"?>
<!-- Generator: Adobe Illustrator 19.1.0, SVG Export Plug-In . SVG Version: 6.00 Build 0)  -->
<svg version="1.1" id="Layer_1" xmlns="http://www.w3.org/2000/svg" xmlns:xlink="http://www.w3.org/1999/xlink" x="0px" y="0px"
	 viewBox="0 0 30 30" style="enable-background:new 0 0 30 30;" xml:space="preserve">
<style type="text/css">
	.st0{fill:#F2F2F2;}
	.st1{fill:#FF0000;}
</style>
<rect class="st0" width="30" height="30"/>
<g>
	<path class="st1" d="M7.3,12.7l1.7-2.3c0.2-0.2,0.3-0.4,0.3-0.8c0-0.5-0.4-1-0.9-1c-0.5,0-0.7,0.3-1,0.6L6,11.1
		c-0.7,0.9-1,1.5-1,2.7v2.4c0,1.1,0.2,1.7,1,2.6l1.6,1.9l0,0c0.2,0.3,0.4,0.5,0.9,0.5c0.5,0,0.9-0.4,0.9-1c0-0.3-0.2-0.5-0.3-0.8
		l-1.7-2.3C7,16.9,7,16.9,7,16.2v-2.4C7,13.1,7,13.1,7.3,12.7z"/>
	<path class="st1" d="M24,11.1l-1.6-1.9l0,0c-0.2-0.3-0.4-0.5-0.9-0.5c-0.5,0-0.9,0.4-0.9,1c0,0.3,0.2,0.5,0.3,0.8l1.7,2.3
		c0.4,0.5,0.4,0.5,0.4,1.1v2.4c0,0.6,0,0.6-0.4,1.1l-1.7,2.3c-0.2,0.2-0.3,0.5-0.3,0.8c0,0.5,0.4,1,0.9,1c0.5,0,0.7-0.3,1-0.6
		l1.6-1.9c0.7-0.9,1-1.5,1-2.6v-2.4C25,12.7,24.8,12.1,24,11.1z"/>
	<path class="st1" d="M18.1,8.6c-0.5,0-0.8,0.3-0.9,0.6l-6.1,10.5c-0.1,0.2-0.2,0.4-0.2,0.7c0,0.5,0.4,0.9,1,0.9
		c0.5,0,0.8-0.4,0.9-0.7l6-10.2l0-0.1c0.2-0.2,0.3-0.5,0.3-0.9C19.1,9.1,18.7,8.6,18.1,8.6z"/>
</g>
</svg>
